# xmcd
#
# Track frame offsets:
#	182
#	13452
#	27305
#	35080
#	56647
#	62520
#	69282
#	78150
#	89380
#	100767
#	113712
#	129042
#	136520
#	141190
#	149200
#	154107
#	162570
#	167462
#	187660
#	198477
#	206855
#	214835
#	236102
#
# Disc length: 3328 seconds
#
# Revision: 3
# Processed by: cddbd v1.5.2PL0 Copyright (c) Steve Scherf et al.
# Submitted via: VUPlayer 2.49
#
DISCID=460cfe17
DTITLE=Phillip Jones Brass Ensemble - Weekend Brass-Trumpet Voluntary
DYEAR=1990
DGENRE=Classical
TTITLE0=Trumpet Voluntary
TTITLE1=Trumpet Tune and Air
TTITLE2=Canzona: sol, sol la sol
TTITLE3=Sonata pian'e forte
TTITLE4=Susato Suite: I. La mourisque
TTITLE5=II. Branle quatre branles
TTITLE6=III. Ronde
TTITLE7=IV. Basse danse bergeret
TTITLE8=V. Ronde mon amy
TTITLE9=VI. Pavane bataille
TTITLE10=Earle of Oxford's March
TTITLE11=Music for his Majesty's Sackbuts and Cornetts  I. Allemande
TTITLE12=II. Sarabande
TTITLE13=III. Allemande
TTITLE14=IV. Courante
TTITLE15=V. Air
TTITLE16=VI. Courante
TTITLE17=Greensleeves
TTITLE18=La Rejouissance
TTITLE19=Battle Suite: I. Galliard Battaglia
TTITLE20=II. Courant dolorosa
TTITLE21=III. Canzon 'in imitation of an English bergamask'
TTITLE22=March
EXTD=
EXTT0=
EXTT1=
EXTT2=
EXTT3=
EXTT4=
EXTT5=
EXTT6=
EXTT7=
EXTT8=
EXTT9=
EXTT10=
EXTT11=
EXTT12=
EXTT13=
EXTT14=
EXTT15=
EXTT16=
EXTT17=
EXTT18=
EXTT19=
EXTT20=
EXTT21=
EXTT22=
PLAYORDER=
